<?xml version="1.0" encoding="utf-8" ?>
<svg baseProfile="full" height="819.2" version="1.1" width="102.4" xmlns="http://www.w3.org/2000/svg" xmlns:ev="http://www.w3.org/2001/xml-events" xmlns:xlink="http://www.w3.org/1999/xlink"><defs /><rect fill="rgb(75%,75%,85%)" height="819.2" width="102.4" x="0" y="0" /><rect fill="rgb(70%,50%,50%)" height="4.2" width="102.4" x="0" y="0.0" /><rect fill="rgb(50%,70%,50%)" height="0.475" width="102.4" x="0" y="4.7" /><rect fill="rgb(50%,50%,70%)" height="0.1875" width="102.4" x="0" y="5.175" /><rect fill="rgb(70%,70%,50%)" height="0.1125" width="102.4" x="0" y="5.3625" /><rect fill="rgb(70%,50%,50%)" height="0.0125" width="102.4" x="0" y="5.475" /><rect fill="rgb(50%,70%,50%)" height="0.0125" width="102.4" x="0" y="5.5" /><rect fill="rgb(50%,50%,70%)" height="0.0125" width="102.4" x="0" y="5.5125" /><rect fill="rgb(70%,70%,50%)" height="0.0125" width="102.4" x="0" y="5.525" /><rect fill="rgb(70%,50%,50%)" height="0.0125" width="102.4" x="0" y="5.5375" /><rect fill="rgb(50%,70%,50%)" height="1.55" width="102.4" x="0" y="5.55" /><rect fill="rgb(50%,50%,70%)" height="0.975" width="102.4" x="0" y="7.1" /><rect fill="rgb(70%,70%,50%)" height="0.975" width="102.4" x="0" y="8.075" /><rect fill="rgb(70%,50%,50%)" height="0.375" width="102.4" x="0" y="9.05" /><rect fill="rgb(50%,70%,50%)" height="0.225" width="102.4" x="0" y="9.425" /><rect fill="rgb(50%,50%,70%)" height="2.325" width="102.4" x="0" y="9.65" /><rect fill="rgb(70%,70%,50%)" height="0.3" width="102.4" x="0" y="11.975" /><rect fill="rgb(70%,50%,50%)" height="1.4" width="102.4" x="0" y="12.275" /><rect fill="rgb(50%,70%,50%)" height="0.675" width="102.4" x="0" y="13.675" /><rect fill="rgb(50%,50%,70%)" height="0.325" width="102.4" x="0" y="14.35" /><rect fill="rgb(70%,70%,50%)" height="0.225" width="102.4" x="0" y="14.675" /><rect fill="rgb(70%,50%,50%)" height="0.225" width="102.4" x="0" y="14.9" /><rect fill="rgb(50%,70%,50%)" height="0.575" width="102.4" x="0" y="15.125" /><rect fill="rgb(50%,50%,70%)" height="0.225" width="102.4" x="0" y="15.7" /><rect fill="rgb(70%,70%,50%)" height="0.425" width="102.4" x="0" y="15.925" /><rect fill="rgb(70%,50%,50%)" height="2.3" width="102.4" x="0" y="16.35" /><rect fill="rgb(50%,70%,50%)" height="0.65" width="102.4" x="0" y="18.65" /><rect fill="rgb(50%,50%,70%)" height="0.975" width="102.4" x="0" y="19.3" /><rect fill="rgb(70%,70%,50%)" height="0.15" width="102.4" x="0" y="20.275" /><rect fill="rgb(70%,50%,50%)" height="1.875" width="102.4" x="0" y="20.425" /><rect fill="rgb(50%,70%,50%)" height="0.175" width="102.4" x="0" y="22.3" /><rect fill="rgb(50%,50%,70%)" height="0.175" width="102.4" x="0" y="22.475" /><rect fill="rgb(70%,70%,50%)" height="0.175" width="102.4" x="0" y="22.65" /><rect fill="rgb(70%,50%,50%)" height="4.675" width="102.4" x="0" y="22.825" /><rect fill="rgb(50%,70%,50%)" height="0.625" width="102.4" x="0" y="27.5" /><rect fill="rgb(50%,50%,70%)" height="1.075" width="102.4" x="0" y="28.125" /><rect fill="rgb(70%,70%,50%)" height="1.075" width="102.4" x="0" y="29.2" /><rect fill="rgb(70%,50%,50%)" height="0.625" width="102.4" x="0" y="30.275" /><rect fill="rgb(50%,70%,50%)" height="0.425" width="102.4" x="0" y="30.9" /><rect fill="rgb(50%,50%,70%)" height="0.975" width="102.4" x="0" y="31.325" /><rect fill="rgb(70%,70%,50%)" height="0.875" width="102.4" x="0" y="32.3" /><rect fill="rgb(70%,50%,50%)" height="0.675" width="102.4" x="0" y="33.175" /><rect fill="rgb(50%,70%,50%)" height="2.875" width="102.4" x="0" y="33.85" /><rect fill="rgb(50%,50%,70%)" height="2.35" width="102.4" x="0" y="36.725" /><rect fill="rgb(70%,70%,50%)" height="0.95" width="102.4" x="0" y="39.075" /><rect fill="rgb(70%,50%,50%)" height="0.525" width="102.4" x="0" y="40.025" /><rect fill="rgb(50%,70%,50%)" height="0.7" width="102.4" x="0" y="40.55" /><rect fill="rgb(50%,50%,70%)" height="0.125" width="102.4" x="0" y="41.25" /><rect fill="rgb(70%,70%,50%)" height="0.125" width="102.4" x="0" y="41.375" /><rect fill="rgb(70%,50%,50%)" height="0.125" width="102.4" x="0" y="41.5" /><rect fill="rgb(50%,70%,50%)" height="0.125" width="102.4" x="0" y="41.625" /><rect fill="rgb(50%,50%,70%)" height="0.625" width="102.4" x="0" y="41.75" /><rect fill="rgb(70%,70%,50%)" height="0.475" width="102.4" x="0" y="42.375" /><rect fill="rgb(70%,50%,50%)" height="4.8125" width="102.4" x="0" y="42.85" /><rect fill="rgb(50%,70%,50%)" height="0.85" width="102.4" x="0" y="47.675" /><rect fill="rgb(50%,50%,70%)" height="0.225" width="102.4" x="0" y="48.525" /><rect fill="rgb(70%,70%,50%)" height="0.225" width="102.4" x="0" y="48.75" /><rect fill="rgb(70%,50%,50%)" height="0.225" width="102.4" x="0" y="48.975" /><rect fill="rgb(50%,70%,50%)" height="0.225" width="102.4" x="0" y="49.2" /><rect fill="rgb(50%,50%,70%)" height="0.225" width="102.4" x="0" y="49.425" /><rect fill="rgb(70%,70%,50%)" height="0.225" width="102.4" x="0" y="49.65" /><rect fill="rgb(70%,50%,50%)" height="0.225" width="102.4" x="0" y="49.875" /><rect fill="rgb(50%,70%,50%)" height="0.225" width="102.4" x="0" y="50.1" /><rect fill="rgb(50%,50%,70%)" height="0.375" width="102.4" x="0" y="50.325" /><rect fill="rgb(70%,70%,50%)" height="0.625" width="102.4" x="0" y="50.7" /><rect fill="rgb(70%,50%,50%)" height="0.475" width="102.4" x="0" y="51.325" /><rect fill="rgb(50%,70%,50%)" height="3.25" width="102.4" x="0" y="51.8" /><rect fill="rgb(50%,50%,70%)" height="0.75" width="102.4" x="0" y="55.05" /><rect fill="rgb(70%,70%,50%)" height="3.325" width="102.4" x="0" y="55.8" /><rect fill="rgb(70%,50%,50%)" height="0.775" width="102.4" x="0" y="59.125" /><rect fill="rgb(50%,70%,50%)" height="0.75" width="102.4" x="0" y="59.9" /><rect fill="rgb(50%,50%,70%)" height="1.2" width="102.4" x="0" y="60.65" /><rect fill="rgb(70%,70%,50%)" height="0.55" width="102.4" x="0" y="61.85" /><rect fill="rgb(70%,50%,50%)" height="2.95" width="102.4" x="0" y="62.4" /><rect fill="rgb(50%,70%,50%)" height="1.075" width="102.4" x="0" y="65.35" /><rect fill="rgb(50%,50%,70%)" height="1.075" width="102.4" x="0" y="66.425" /><rect fill="rgb(70%,70%,50%)" height="0.325" width="102.4" x="0" y="67.5" /><rect fill="rgb(70%,50%,50%)" height="0.325" width="102.4" x="0" y="67.825" /><rect fill="rgb(50%,70%,50%)" height="0.4" width="102.4" x="0" y="68.15" /><rect fill="rgb(50%,50%,70%)" height="0.8" width="102.4" x="0" y="68.55" /><rect fill="rgb(70%,70%,50%)" height="1.525" width="102.4" x="0" y="69.35" /><rect fill="rgb(70%,50%,50%)" height="1.6" width="102.4" x="0" y="70.875" /><rect fill="rgb(50%,70%,50%)" height="0.725" width="102.4" x="0" y="72.475" /><rect fill="rgb(50%,50%,70%)" height="0.55" width="102.4" x="0" y="73.2" /><rect fill="rgb(70%,70%,50%)" height="0.6" width="102.4" x="0" y="73.75" /><rect fill="rgb(70%,50%,50%)" height="0.8" width="102.4" x="0" y="74.35" /><rect fill="rgb(50%,70%,50%)" height="2.825" width="102.4" x="0" y="75.15" /><rect fill="rgb(50%,50%,70%)" height="2.5625" width="102.4" x="0" y="77.975" /><rect fill="rgb(70%,70%,50%)" height="1.7125" width="102.4" x="0" y="80.55" /><rect fill="rgb(70%,50%,50%)" height="2.5875" width="102.4" x="0" y="82.275" /><rect fill="rgb(50%,70%,50%)" height="2.5875" width="102.4" x="0" y="84.875" /><rect fill="rgb(50%,50%,70%)" height="1.0625" width="102.4" x="0" y="87.475" /><rect fill="rgb(70%,70%,50%)" height="3.125" width="102.4" x="0" y="88.55" /><rect fill="rgb(70%,50%,50%)" height="0.675" width="102.4" x="0" y="91.675" /><rect fill="rgb(50%,70%,50%)" height="0.325" width="102.4" x="0" y="92.35" /><rect fill="rgb(50%,50%,70%)" height="0.375" width="102.4" x="0" y="92.675" /><rect fill="rgb(70%,70%,50%)" height="0.35" width="102.4" x="0" y="93.05" /><rect fill="rgb(70%,50%,50%)" height="0.4" width="102.4" x="0" y="93.4" /><rect fill="rgb(50%,70%,50%)" height="0.35" width="102.4" x="0" y="93.8" /><rect fill="rgb(50%,50%,70%)" height="0.8" width="102.4" x="0" y="94.15" /><rect fill="rgb(70%,70%,50%)" height="0.65" width="102.4" x="0" y="94.95" /><rect fill="rgb(70%,50%,50%)" height="0.425" width="102.4" x="0" y="95.6" /><rect fill="rgb(50%,70%,50%)" height="0.425" width="102.4" x="0" y="96.025" /><rect fill="rgb(50%,50%,70%)" height="0.3" width="102.4" x="0" y="96.45" /><rect fill="rgb(70%,70%,50%)" height="0.625" width="102.4" x="0" y="96.75" /><rect fill="rgb(70%,50%,50%)" height="0.25" width="102.4" x="0" y="97.375" /><rect fill="rgb(50%,70%,50%)" height="0.35" width="102.4" x="0" y="97.625" /><rect fill="rgb(50%,50%,70%)" height="0.35" width="102.4" x="0" y="97.975" /><rect fill="rgb(70%,70%,50%)" height="1.475" width="102.4" x="0" y="98.325" /><rect fill="rgb(70%,50%,50%)" height="0.975" width="102.4" x="0" y="99.8" /><rect fill="rgb(50%,70%,50%)" height="0.975" width="102.4" x="0" y="100.775" /><rect fill="rgb(50%,50%,70%)" height="0.625" width="102.4" x="0" y="101.75" /><rect fill="rgb(70%,70%,50%)" height="0.2" width="102.4" x="0" y="102.375" /><rect fill="rgb(70%,50%,50%)" height="0.2" width="102.4" x="0" y="102.575" /><rect fill="rgb(50%,70%,50%)" height="0.45" width="102.4" x="0" y="102.775" /><rect fill="rgb(50%,50%,70%)" height="0.425" width="102.4" x="0" y="103.225" /><rect fill="rgb(70%,70%,50%)" height="9.85" width="102.4" x="0" y="103.65" /><rect fill="rgb(70%,50%,50%)" height="0.625" width="102.4" x="0" y="113.5" /><rect fill="rgb(50%,70%,50%)" height="2.75" width="102.4" x="0" y="114.125" /><rect fill="rgb(50%,50%,70%)" height="0.475" width="102.4" x="0" y="116.875" /><rect fill="rgb(70%,70%,50%)" height="0.675" width="102.4" x="0" y="117.425" /><rect fill="rgb(70%,50%,50%)" height="1.25" width="102.4" x="0" y="118.1" /><rect fill="rgb(50%,70%,50%)" height="0.2" width="102.4" x="0" y="119.35" /><rect fill="rgb(50%,50%,70%)" height="1.6" width="102.4" x="0" y="119.55" /><rect fill="rgb(70%,70%,50%)" height="0.425" width="102.4" x="0" y="121.15" /><rect fill="rgb(70%,50%,50%)" height="0.75" width="102.4" x="0" y="121.575" /><rect fill="rgb(50%,70%,50%)" height="18.425" width="102.4" x="0" y="122.325" /><rect fill="rgb(50%,50%,70%)" height="0.65" width="102.4" x="0" y="140.75" /><rect fill="rgb(70%,70%,50%)" height="0.525" width="102.4" x="0" y="141.4" /><rect fill="rgb(70%,50%,50%)" height="0.4" width="102.4" x="0" y="141.925" /><rect fill="rgb(50%,70%,50%)" height="0.375" width="102.4" x="0" y="142.325" /><rect fill="rgb(50%,50%,70%)" height="0.425" width="102.4" x="0" y="142.7" /><rect fill="rgb(70%,70%,50%)" height="0.15" width="102.4" x="0" y="143.125" /><rect fill="rgb(70%,50%,50%)" height="0.05" width="102.4" x="0" y="143.275" /><rect fill="rgb(50%,70%,50%)" height="0.05" width="102.4" x="0" y="143.325" /><rect fill="rgb(50%,50%,70%)" height="0.05" width="102.4" x="0" y="143.375" /><rect fill="rgb(70%,70%,50%)" height="0.05" width="102.4" x="0" y="143.425" /><rect fill="rgb(70%,50%,50%)" height="0.05" width="102.4" x="0" y="143.475" /><rect fill="rgb(50%,70%,50%)" height="0.05" width="102.4" x="0" y="143.525" /><rect fill="rgb(50%,50%,70%)" height="0.05" width="102.4" x="0" y="143.575" /><rect fill="rgb(70%,70%,50%)" height="0.05" width="102.4" x="0" y="143.625" /><rect fill="rgb(70%,50%,50%)" height="0.05" width="102.4" x="0" y="143.675" /><rect fill="rgb(50%,70%,50%)" height="0.05" width="102.4" x="0" y="143.725" /><rect fill="rgb(50%,50%,70%)" height="0.05" width="102.4" x="0" y="143.775" /><rect fill="rgb(70%,70%,50%)" height="0.05" width="102.4" x="0" y="143.825" /><rect fill="rgb(70%,50%,50%)" height="0.05" width="102.4" x="0" y="143.875" /><rect fill="rgb(50%,70%,50%)" height="0.05" width="102.4" x="0" y="143.925" /><rect fill="rgb(50%,50%,70%)" height="0.05" width="102.4" x="0" y="143.975" /><rect fill="rgb(70%,70%,50%)" height="0.05" width="102.4" x="0" y="144.025" /><rect fill="rgb(70%,50%,50%)" height="0.05" width="102.4" x="0" y="144.075" /><rect fill="rgb(50%,70%,50%)" height="0.05" width="102.4" x="0" y="144.125" /><rect fill="rgb(50%,50%,70%)" height="0.05" width="102.4" x="0" y="144.175" /><rect fill="rgb(70%,70%,50%)" height="0.05" width="102.4" x="0" y="144.225" /><rect fill="rgb(70%,50%,50%)" height="0.05" width="102.4" x="0" y="144.275" /><rect fill="rgb(50%,70%,50%)" height="0.05" width="102.4" x="0" y="144.325" /><rect fill="rgb(50%,50%,70%)" height="0.05" width="102.4" x="0" y="144.375" /><rect fill="rgb(70%,70%,50%)" height="0.05" width="102.4" x="0" y="144.425" /><rect fill="rgb(70%,50%,50%)" height="0.05" width="102.4" x="0" y="144.475" /><rect fill="rgb(50%,70%,50%)" height="0.05" width="102.4" x="0" y="144.525" /><rect fill="rgb(50%,50%,70%)" height="0.05" width="102.4" x="0" y="144.575" /><rect fill="rgb(70%,70%,50%)" height="0.05" width="102.4" x="0" y="144.625" /><rect fill="rgb(70%,50%,50%)" height="0.05" width="102.4" x="0" y="144.675" /><rect fill="rgb(50%,70%,50%)" height="0.05" width="102.4" x="0" y="144.725" /><rect fill="rgb(50%,50%,70%)" height="0.05" width="102.4" x="0" y="144.775" /><rect fill="rgb(70%,70%,50%)" height="0.05" width="102.4" x="0" y="144.825" /><rect fill="rgb(70%,50%,50%)" height="0.05" width="102.4" x="0" y="144.875" /><rect fill="rgb(50%,70%,50%)" height="0.05" width="102.4" x="0" y="144.925" /><rect fill="rgb(50%,50%,70%)" height="0.05" width="102.4" x="0" y="144.975" /><rect fill="rgb(70%,70%,50%)" height="0.05" width="102.4" x="0" y="145.025" /><rect fill="rgb(70%,50%,50%)" height="0.05" width="102.4" x="0" y="145.075" /><rect fill="rgb(50%,70%,50%)" height="0.05" width="102.4" x="0" y="145.125" /><rect fill="rgb(50%,50%,70%)" height="0.05" width="102.4" x="0" y="145.175" /><rect fill="rgb(70%,70%,50%)" height="0.05" width="102.4" x="0" y="145.225" /><rect fill="rgb(70%,50%,50%)" height="0.05" width="102.4" x="0" y="145.275" /><rect fill="rgb(50%,70%,50%)" height="0.05" width="102.4" x="0" y="145.325" /><rect fill="rgb(50%,50%,70%)" height="0.05" width="102.4" x="0" y="145.375" /><rect fill="rgb(70%,70%,50%)" height="0.05" width="102.4" x="0" y="145.425" /><rect fill="rgb(70%,50%,50%)" height="0.05" width="102.4" x="0" y="145.475" /><rect fill="rgb(50%,70%,50%)" height="0.05" width="102.4" x="0" y="145.525" /><rect fill="rgb(50%,50%,70%)" height="0.05" width="102.4" x="0" y="145.575" /><rect fill="rgb(70%,70%,50%)" height="0.05" width="102.4" x="0" y="145.625" /><rect fill="rgb(70%,50%,50%)" height="0.05" width="102.4" x="0" y="145.675" /><rect fill="rgb(50%,70%,50%)" height="0.05" width="102.4" x="0" y="145.725" /><rect fill="rgb(50%,50%,70%)" height="0.05" width="102.4" x="0" y="145.775" /><rect fill="rgb(70%,70%,50%)" height="0.05" width="102.4" x="0" y="145.825" /><rect fill="rgb(70%,50%,50%)" height="0.05" width="102.4" x="0" y="145.875" /><rect fill="rgb(50%,70%,50%)" height="0.05" width="102.4" x="0" y="145.925" /><rect fill="rgb(50%,50%,70%)" height="0.05" width="102.4" x="0" y="145.975" /><rect fill="rgb(70%,70%,50%)" height="0.05" width="102.4" x="0" y="146.025" /><rect fill="rgb(70%,50%,50%)" height="0.05" width="102.4" x="0" y="146.075" /><rect fill="rgb(50%,70%,50%)" height="0.05" width="102.4" x="0" y="146.125" /><rect fill="rgb(50%,50%,70%)" height="0.05" width="102.4" x="0" y="146.175" /><rect fill="rgb(70%,70%,50%)" height="0.05" width="102.4" x="0" y="146.225" /><rect fill="rgb(70%,50%,50%)" height="0.05" width="102.4" x="0" y="146.275" /><rect fill="rgb(50%,70%,50%)" height="0.05" width="102.4" x="0" y="146.325" /><rect fill="rgb(50%,50%,70%)" height="0.05" width="102.4" x="0" y="146.375" /><rect fill="rgb(70%,70%,50%)" height="0.05" width="102.4" x="0" y="146.425" /><rect fill="rgb(70%,50%,50%)" height="0.05" width="102.4" x="0" y="146.475" /><rect fill="rgb(50%,70%,50%)" height="0.05" width="102.4" x="0" y="146.525" /><rect fill="rgb(50%,50%,70%)" height="0.05" width="102.4" x="0" y="146.575" /><rect fill="rgb(70%,70%,50%)" height="0.05" width="102.4" x="0" y="146.625" /><rect fill="rgb(70%,50%,50%)" height="0.05" width="102.4" x="0" y="146.675" /><rect fill="rgb(50%,70%,50%)" height="0.05" width="102.4" x="0" y="146.725" /><rect fill="rgb(50%,50%,70%)" height="0.05" width="102.4" x="0" y="146.775" /><rect fill="rgb(70%,70%,50%)" height="0.05" width="102.4" x="0" y="146.825" /><rect fill="rgb(70%,50%,50%)" height="0.05" width="102.4" x="0" y="146.875" /><rect fill="rgb(50%,70%,50%)" height="0.05" width="102.4" x="0" y="146.925" /><rect fill="rgb(50%,50%,70%)" height="0.05" width="102.4" x="0" y="146.975" /><rect fill="rgb(70%,70%,50%)" height="0.05" width="102.4" x="0" y="147.025" /><rect fill="rgb(70%,50%,50%)" height="0.05" width="102.4" x="0" y="147.075" /><rect fill="rgb(50%,70%,50%)" height="0.05" width="102.4" x="0" y="147.125" /><rect fill="rgb(50%,50%,70%)" height="0.05" width="102.4" x="0" y="147.175" /><rect fill="rgb(70%,70%,50%)" height="0.05" width="102.4" x="0" y="147.225" /><rect fill="rgb(70%,50%,50%)" height="0.05" width="102.4" x="0" y="147.275" /><rect fill="rgb(50%,70%,50%)" height="0.05" width="102.4" x="0" y="147.325" /><rect fill="rgb(50%,50%,70%)" height="0.05" width="102.4" x="0" y="147.375" /><rect fill="rgb(70%,70%,50%)" height="0.05" width="102.4" x="0" y="147.425" /><rect fill="rgb(70%,50%,50%)" height="0.05" width="102.4" x="0" y="147.475" /><rect fill="rgb(50%,70%,50%)" height="0.05" width="102.4" x="0" y="147.525" /><rect fill="rgb(50%,50%,70%)" height="0.05" width="102.4" x="0" y="147.575" /><rect fill="rgb(70%,70%,50%)" height="0.05" width="102.4" x="0" y="147.625" /><rect fill="rgb(70%,50%,50%)" height="0.05" width="102.4" x="0" y="147.675" /><rect fill="rgb(50%,70%,50%)" height="0.05" width="102.4" x="0" y="147.725" /><rect fill="rgb(50%,50%,70%)" height="0.05" width="102.4" x="0" y="147.775" /><rect fill="rgb(70%,70%,50%)" height="0.05" width="102.4" x="0" y="147.825" /><rect fill="rgb(70%,50%,50%)" height="0.05" width="102.4" x="0" y="147.875" /><rect fill="rgb(50%,70%,50%)" height="0.05" width="102.4" x="0" y="147.925" /><rect fill="rgb(50%,50%,70%)" height="0.05" width="102.4" x="0" y="147.975" /><rect fill="rgb(70%,70%,50%)" height="0.05" width="102.4" x="0" y="148.025" /><rect fill="rgb(70%,50%,50%)" height="0.05" width="102.4" x="0" y="148.075" /><rect fill="rgb(50%,70%,50%)" height="0.05" width="102.4" x="0" y="148.125" /><rect fill="rgb(50%,50%,70%)" height="0.05" width="102.4" x="0" y="148.175" /><rect fill="rgb(70%,70%,50%)" height="0.05" width="102.4" x="0" y="148.225" /><rect fill="rgb(70%,50%,50%)" height="0.05" width="102.4" x="0" y="148.275" /><rect fill="rgb(50%,70%,50%)" height="0.05" width="102.4" x="0" y="148.325" /><rect fill="rgb(50%,50%,70%)" height="0.05" width="102.4" x="0" y="148.375" /><rect fill="rgb(70%,70%,50%)" height="0.05" width="102.4" x="0" y="148.425" /><rect fill="rgb(70%,50%,50%)" height="0.05" width="102.4" x="0" y="148.475" /><rect fill="rgb(50%,70%,50%)" height="0.05" width="102.4" x="0" y="148.525" /><rect fill="rgb(50%,50%,70%)" height="0.05" width="102.4" x="0" y="148.575" /><rect fill="rgb(70%,70%,50%)" height="0.05" width="102.4" x="0" y="148.625" /><rect fill="rgb(70%,50%,50%)" height="0.05" width="102.4" x="0" y="148.675" /><rect fill="rgb(50%,70%,50%)" height="0.05" width="102.4" x="0" y="148.725" /><rect fill="rgb(50%,50%,70%)" height="0.05" width="102.4" x="0" y="148.775" /><rect fill="rgb(70%,70%,50%)" height="0.05" width="102.4" x="0" y="148.825" /><rect fill="rgb(70%,50%,50%)" height="0.05" width="102.4" x="0" y="148.875" /><rect fill="rgb(50%,70%,50%)" height="0.05" width="102.4" x="0" y="148.925" /><rect fill="rgb(50%,50%,70%)" height="0.05" width="102.4" x="0" y="148.975" /><rect fill="rgb(70%,70%,50%)" height="0.05" width="102.4" x="0" y="149.025" /><rect fill="rgb(70%,50%,50%)" height="0.05" width="102.4" x="0" y="149.075" /><rect fill="rgb(50%,70%,50%)" height="0.05" width="102.4" x="0" y="149.125" /><rect fill="rgb(50%,50%,70%)" height="0.05" width="102.4" x="0" y="149.175" /><rect fill="rgb(70%,70%,50%)" height="0.05" width="102.4" x="0" y="149.225" /><rect fill="rgb(70%,50%,50%)" height="0.05" width="102.4" x="0" y="149.275" /><rect fill="rgb(50%,70%,50%)" height="0.05" width="102.4" x="0" y="149.325" /><rect fill="rgb(50%,50%,70%)" height="0.05" width="102.4" x="0" y="149.375" /><rect fill="rgb(70%,70%,50%)" height="0.05" width="102.4" x="0" y="149.425" /><rect fill="rgb(70%,50%,50%)" height="0.05" width="102.4" x="0" y="149.475" /><rect fill="rgb(50%,70%,50%)" height="0.05" width="102.4" x="0" y="149.525" /><rect fill="rgb(50%,50%,70%)" height="0.05" width="102.4" x="0" y="149.575" /><rect fill="rgb(70%,70%,50%)" height="0.05" width="102.4" x="0" y="149.625" /><rect fill="rgb(70%,50%,50%)" height="0.05" width="102.4" x="0" y="149.675" /><rect fill="rgb(50%,70%,50%)" height="0.05" width="102.4" x="0" y="149.725" /><rect fill="rgb(50%,50%,70%)" height="0.05" width="102.4" x="0" y="149.775" /><rect fill="rgb(70%,70%,50%)" height="0.05" width="102.4" x="0" y="149.825" /><rect fill="rgb(70%,50%,50%)" height="0.05" width="102.4" x="0" y="149.875" /><rect fill="rgb(50%,70%,50%)" height="0.05" width="102.4" x="0" y="149.925" /><rect fill="rgb(50%,50%,70%)" height="0.05" width="102.4" x="0" y="149.975" /><rect fill="rgb(70%,70%,50%)" height="0.05" width="102.4" x="0" y="150.025" /><rect fill="rgb(70%,50%,50%)" height="0.05" width="102.4" x="0" y="150.075" /><rect fill="rgb(50%,70%,50%)" height="0.05" width="102.4" x="0" y="150.125" /><rect fill="rgb(50%,50%,70%)" height="0.05" width="102.4" x="0" y="150.175" /><rect fill="rgb(70%,70%,50%)" height="0.05" width="102.4" x="0" y="150.225" /><rect fill="rgb(70%,50%,50%)" height="0.05" width="102.4" x="0" y="150.275" /><rect fill="rgb(50%,70%,50%)" height="0.05" width="102.4" x="0" y="150.325" /><rect fill="rgb(50%,50%,70%)" height="0.05" width="102.4" x="0" y="150.375" /><rect fill="rgb(70%,70%,50%)" height="0.05" width="102.4" x="0" y="150.425" /><rect fill="rgb(70%,50%,50%)" height="0.05" width="102.4" x="0" y="150.475" /><rect fill="rgb(50%,70%,50%)" height="0.05" width="102.4" x="0" y="150.525" /><rect fill="rgb(50%,50%,70%)" height="0.05" width="102.4" x="0" y="150.575" /><rect fill="rgb(70%,70%,50%)" height="0.05" width="102.4" x="0" y="150.625" /><rect fill="rgb(70%,50%,50%)" height="0.05" width="102.4" x="0" y="150.675" /><rect fill="rgb(50%,70%,50%)" height="0.05" width="102.4" x="0" y="150.725" /><rect fill="rgb(50%,50%,70%)" height="0.05" width="102.4" x="0" y="150.775" /><rect fill="rgb(70%,70%,50%)" height="0.05" width="102.4" x="0" y="150.825" /><rect fill="rgb(70%,50%,50%)" height="0.2375" width="102.4" x="0" y="150.875" /><rect fill="rgb(50%,70%,50%)" height="0.275" width="102.4" x="0" y="151.1125" /><rect fill="rgb(50%,50%,70%)" height="0.1125" width="102.4" x="0" y="151.3875" /><rect fill="rgb(70%,70%,50%)" height="0.3125" width="102.4" x="0" y="151.5" /><rect fill="rgb(70%,50%,50%)" height="0.375" width="102.4" x="0" y="151.8125" /><rect fill="rgb(50%,70%,50%)" height="0.325" width="102.4" x="0" y="152.1875" /><rect fill="rgb(50%,50%,70%)" height="0.1875" width="102.4" x="0" y="152.5125" /><rect fill="rgb(70%,70%,50%)" height="0.2" width="102.4" x="0" y="152.7" /><rect fill="rgb(70%,50%,50%)" height="0.25" width="102.4" x="0" y="152.9" /><rect fill="rgb(50%,70%,50%)" height="0.15" width="102.4" x="0" y="153.15" /><rect fill="rgb(50%,50%,70%)" height="0.175" width="102.4" x="0" y="153.3" /><rect fill="rgb(70%,70%,50%)" height="0.275" width="102.4" x="0" y="153.475" /><rect fill="rgb(70%,50%,50%)" height="0.3875" width="102.4" x="0" y="153.75" /><rect fill="rgb(50%,70%,50%)" height="0.4875" width="102.4" x="0" y="154.1375" /><rect fill="rgb(50%,50%,70%)" height="0.325" width="102.4" x="0" y="154.625" /><rect fill="rgb(70%,70%,50%)" height="0.625" width="102.4" x="0" y="154.95" /><rect fill="rgb(70%,50%,50%)" height="0.575" width="102.4" x="0" y="155.575" /><rect fill="rgb(50%,70%,50%)" height="0.1875" width="102.4" x="0" y="156.15" /><rect fill="rgb(50%,50%,70%)" height="0.275" width="102.4" x="0" y="156.3375" /><rect fill="rgb(70%,70%,50%)" height="0.1875" width="102.4" x="0" y="156.6125" /><rect fill="rgb(70%,50%,50%)" height="0.275" width="102.4" x="0" y="156.8" /><rect fill="rgb(50%,70%,50%)" height="0.2375" width="102.4" x="0" y="157.075" /><rect fill="rgb(50%,50%,70%)" height="0.35" width="102.4" x="0" y="157.3125" /><rect fill="rgb(70%,70%,50%)" height="0.2375" width="102.4" x="0" y="157.6625" /><rect fill="rgb(70%,50%,50%)" height="0.25" width="102.4" x="0" y="157.9" /><rect fill="rgb(50%,70%,50%)" height="1.275" width="102.4" x="0" y="158.15" /><rect fill="rgb(50%,50%,70%)" height="0.3125" width="102.4" x="0" y="159.425" /><rect fill="rgb(70%,70%,50%)" height="0.4375" width="102.4" x="0" y="159.7375" /><rect fill="rgb(70%,50%,50%)" height="0.2875" width="102.4" x="0" y="160.175" /><rect fill="rgb(50%,70%,50%)" height="0.0875" width="102.4" x="0" y="160.4625" /><rect fill="rgb(50%,50%,70%)" height="0.2125" width="102.4" x="0" y="160.55" /><rect fill="rgb(70%,70%,50%)" height="0.5625" width="102.4" x="0" y="160.7625" /><rect fill="rgb(70%,50%,50%)" height="0.425" width="102.4" x="0" y="161.325" /><rect fill="rgb(50%,70%,50%)" height="0.4875" width="102.4" x="0" y="161.75" /><rect fill="rgb(50%,50%,70%)" height="0.325" width="102.4" x="0" y="162.2375" /><rect fill="rgb(70%,70%,50%)" height="0.7625" width="102.4" x="0" y="162.5625" /><rect fill="rgb(70%,50%,50%)" height="0.15" width="102.4" x="0" y="163.325" /><rect fill="rgb(50%,70%,50%)" height="0.2375" width="102.4" x="0" y="163.475" /><rect fill="rgb(50%,50%,70%)" height="0.2125" width="102.4" x="0" y="163.7125" /><rect fill="rgb(70%,70%,50%)" height="0.3875" width="102.4" x="0" y="163.925" /><rect fill="rgb(70%,50%,50%)" height="0.85" width="102.4" x="0" y="164.3125" /><rect fill="rgb(50%,70%,50%)" height="1.0" width="102.4" x="0" y="165.1625" /><rect fill="rgb(50%,50%,70%)" height="0.1875" width="102.4" x="0" y="166.1625" /><rect fill="rgb(70%,70%,50%)" height="0.4875" width="102.4" x="0" y="166.35" /><rect fill="rgb(70%,50%,50%)" height="0.675" width="102.4" x="0" y="166.8375" /><rect fill="rgb(50%,70%,50%)" height="0.1875" width="102.4" x="0" y="167.5125" /><rect fill="rgb(50%,50%,70%)" height="0.3625" width="102.4" x="0" y="167.7" /><rect fill="rgb(70%,70%,50%)" height="0.2375" width="102.4" x="0" y="168.0625" /><rect fill="rgb(70%,50%,50%)" height="0.0875" width="102.4" x="0" y="168.3" /><rect fill="rgb(50%,70%,50%)" height="0.025" width="102.4" x="0" y="168.3875" /><rect fill="rgb(50%,50%,70%)" height="0.025" width="102.4" x="0" y="168.4125" /><rect fill="rgb(70%,70%,50%)" height="0.4" width="102.4" x="0" y="168.4375" /><rect fill="rgb(70%,50%,50%)" height="2.0" width="102.4" x="0" y="168.8375" /><rect fill="rgb(50%,70%,50%)" height="0.5125" width="102.4" x="0" y="170.8375" /><rect fill="rgb(50%,50%,70%)" height="0.3" width="102.4" x="0" y="171.35" /><rect fill="rgb(70%,70%,50%)" height="0.275" width="102.4" x="0" y="171.65" /><rect fill="rgb(70%,50%,50%)" height="0.025" width="102.4" x="0" y="171.925" /><rect fill="rgb(50%,70%,50%)" height="0.4625" width="102.4" x="0" y="171.95" /><rect fill="rgb(50%,50%,70%)" height="0.65" width="102.4" x="0" y="172.4125" /><rect fill="rgb(70%,70%,50%)" height="0.55" width="102.4" x="0" y="173.0625" /><rect fill="rgb(70%,50%,50%)" height="0.125" width="102.4" x="0" y="173.6125" /><rect fill="rgb(50%,70%,50%)" height="0.4" width="102.4" x="0" y="173.7375" /><rect fill="rgb(50%,50%,70%)" height="0.0625" width="102.4" x="0" y="174.1375" /><rect fill="rgb(70%,70%,50%)" height="0.2625" width="102.4" x="0" y="174.2" /><rect fill="rgb(70%,50%,50%)" height="0.3125" width="102.4" x="0" y="174.4625" /><rect fill="rgb(50%,70%,50%)" height="300.2" width="102.4" x="0" y="179.125" /><rect fill="rgb(50%,50%,70%)" height="0.1" width="102.4" x="0" y="479.325" /><rect fill="rgb(70%,70%,50%)" height="0.125" width="102.4" x="0" y="485.8" /><rect fill="rgb(70%,50%,50%)" height="0.0625" width="102.4" x="0" y="485.925" /><rect fill="rgb(50%,70%,50%)" height="0.225" width="102.4" x="0" y="495.25" /><rect fill="rgb(50%,50%,70%)" height="0.1125" width="102.4" x="0" y="495.475" /><rect fill="rgb(70%,70%,50%)" height="0.1" width="102.4" x="0" y="501.975" /><rect fill="rgb(70%,50%,50%)" height="0.05" width="102.4" x="0" y="502.075" /><rect fill="rgb(50%,70%,50%)" height="0.05" width="102.4" x="0" y="502.125" /><rect fill="rgb(50%,50%,70%)" height="0.225" width="102.4" x="0" y="502.175" /><rect fill="rgb(70%,70%,50%)" height="0.7" width="102.4" x="0" y="518.175" /><rect fill="rgb(70%,50%,50%)" height="0.05" width="102.4" x="0" y="519.875" /><rect fill="rgb(50%,70%,50%)" height="0.125" width="102.4" x="0" y="519.925" /><rect fill="rgb(50%,50%,70%)" height="0.025" width="102.4" x="0" y="520.3" /></svg>